<svg xmlns="http://www.w3.org/2000/svg" xmlns:xlink="http://www.w3.org/1999/xlink" viewBox="0,0,256,256" width="48px" height="48px"><g fill="#ffffff" fill-rule="nonzero" stroke="none" stroke-width="1" stroke-linecap="butt" stroke-linejoin="miter" stroke-miterlimit="10" stroke-dasharray="" stroke-dashoffset="0" font-family="none" font-weight="none" font-size="none" text-anchor="none" style="mix-blend-mode: normal"><g transform="scale(5.33333,5.33333)"><path d="M24,17c-1.37,0 -2.68,0.28 -3.87,0.78l-0.051,1.273l0.811,0.577c0.96,-0.41 2.01,-0.63 3.11,-0.63c4.41,0 8,3.59 8,8c0,4.41 -3.59,8 -8,8c-2.88,0 -5.4,-1.53 -6.82,-3.82l-1.49,1.38c1.8,2.67 4.85,4.44 8.31,4.44c5.51,0 10,-4.49 10,-10c0,-5.51 -4.49,-10 -10,-10z"></path><path d="M27.36,22.57c-2.06,0.29 -3.98,1.49 -5.09,3.43c-0.08,0.14 -0.15,0.27 -0.22,0.41l-1.024,-0.252l-0.596,-0.958c0.03,-0.07 0.07,-0.13 0.11,-0.2c1.35,-2.35 3.61,-3.86 6.09,-4.33l0.981,0.988z"></path><path d="M19.67,38.5c-4.963,0 -9,-4.038 -9,-9h2c0,3.86 3.141,7 7,7c3.859,0 7,-3.14 7,-7h2c0,4.962 -4.037,9 -9,9z"></path><rect x="23" y="7" width="2" height="39"></rect><path d="M24,47c-9.882,0 -17.32,-5.971 -17.632,-6.225l1.263,-1.551c0.071,0.058 7.218,5.776 16.369,5.776c9.178,0 16.297,-5.717 16.368,-5.775l1.264,1.55c-0.312,0.254 -7.75,6.225 -17.632,6.225z"></path><path d="M28.67,29.5h-2c0,-3.86 -3.141,-7 -7,-7c-3.859,0 -7,3.14 -7,7l-0.975,0.447l-1.025,-0.447c0,-4.962 4.037,-9 9,-9c4.963,0 9,4.038 9,9z"></path><path d="M24,31c-4.963,0 -9,-4.038 -9,-9c0,-4.962 4.037,-9 9,-9c4.963,0 9,4.038 9,9c0,4.962 -4.037,9 -9,9zM24,15c-3.859,0 -7,3.14 -7,7c0,3.86 3.141,7 7,7c3.859,0 7,-3.14 7,-7c0,-3.86 -3.141,-7 -7,-7z"></path><path d="M32.56,35.07c-2.18,1.65 -5.22,1.94 -7.73,0.49c-1.62,-0.93 -2.78,-2.44 -3.26,-4.25c-0.45,-1.65 -0.28,-3.38 0.48,-4.9l-1.62,-1.21c-1.12,2.04 -1.4,4.38 -0.79,6.63c0.62,2.32 2.11,4.26 4.19,5.46c1.41,0.82 2.96,1.21 4.48,1.21c1.79,0 3.55,-0.53 5.04,-1.54z"></path><path d="M24,7c-5.064,0 -9.074,-0.988 -9.242,-1.03l0.484,-1.94c0.039,0.01 3.951,0.97 8.758,0.97c4.807,0 8.719,-0.96 8.758,-0.97l0.484,1.94c-0.168,0.042 -4.178,1.03 -9.242,1.03z"></path><path d="M22,7l1,1h1.963l1.037,-1l-1.5,-5h-1z"></path><path d="M16,27c0,1.53 0.44,2.96 1.18,4.18l-0.417,1.041l-1.073,0.339c-1.07,-1.59 -1.69,-3.5 -1.69,-5.56c0,-4.14 2.53,-7.7 6.13,-9.22l0.76,1.85c-2.87,1.22 -4.89,4.06 -4.89,7.37z"></path><path d="M36.12,34c-0.71,1.23 -1.66,2.22 -2.77,2.96l-0.655,-0.744l-0.135,-1.146c0.72,-0.54 1.35,-1.24 1.83,-2.07c1.93,-3.34 0.78,-7.63 -2.56,-9.56c-1.1,-0.64 -2.3,-0.94 -3.49,-0.94c-0.33,0 -0.66,0.02 -0.98,0.07l-0.73,-1.9c2.05,-0.4 4.25,-0.09 6.2,1.04c4.3,2.48 5.78,7.99 3.29,12.29z"></path></g></g></svg>